# xmcd
#
# Track frame offsets: 
#        150
#        13714
#        25205
#        38456
#        49131
#        60977
#        72763
#        86436
#        99284
#        111064
#        124334
#        135279
#
# Disc length: 1971 seconds
#
# Revision: 0
# Processed by: cddbd v1.5.2PL0 Copyright (c) Steve Scherf et al.
# Submitted via: ExactAudioCopy v1.1
#
DISCID=8b07b10c
DTITLE=The Monitors - Greetings! ... We're The Monitors
DYEAR=1968
DGENRE=Soul
TTITLE0=Bring Back The Love
TTITLE1=Share A Little Love With Me (Somebody)
TTITLE2=Step By Step (Hand In Hand)
TTITLE3=The Further You Look, The Less You See
TTITLE4=Since I Lost You Girl
TTITLE5=Baby Make Your Own Sweet Music
TTITLE6=Greetings (This Is Uncle Sam)
TTITLE7=Time Is Passin' By
TTITLE8=Say You
TTITLE9=Number One In Your Heart
TTITLE10=Serve Yourself A Cup Of Happiness
TTITLE11=You Share The Blame
EXTD=
EXTT0=
EXTT1=
EXTT2=
EXTT3=
EXTT4=
EXTT5=
EXTT6=
EXTT7=
EXTT8=
EXTT9=
EXTT10=
EXTT11=
PLAYORDER=
